<?xml version="1.0" encoding="utf-8"?><svg xmlns="http://www.w3.org/2000/svg" xmlns:xlink="http://www.w3.org/1999/xlink"><symbol viewBox="0 0 17 16" id="Vector" xmlns="http://www.w3.org/2000/svg"><path d="M13.389 0h2.606L10.3 6.509l6.7 8.856h-5.246L7.645 9.994l-4.7 5.371H.334l6.092-6.961L0 0h5.379l3.714 4.91L13.389 0zm-.915 13.805h1.444L4.594 1.478h-1.55l9.43 12.327z"/></symbol><symbol viewBox="0 0 35 18" id="auto_sedan" xmlns="http://www.w3.org/2000/svg"><path d="M31.259 7.587l-5.87-.978a14.994 14.994 0 00-2.017-2.576C21.392 2.016 19.113.95 16.781.95H7.223c-1.553 0-2.993.84-3.757 2.19L.832 7.796.82 7.82C.617 8.184.5 8.603.5 9.05v4.906c0 .55.446.996.996.996h3.19a3.273 3.273 0 003.057 2.098 3.274 3.274 0 003.057-2.098h12.372a3.273 3.273 0 003.057 2.098 3.273 3.273 0 003.057-2.098h4.218c.55 0 .996-.446.996-.996v-2.637a3.782 3.782 0 00-3.241-3.73zm-8.361-1.069h-7.176V2.943h1.059c2.823 0 4.955 2.087 6.117 3.575zM9.074 2.943h4.656v3.575H9.074V2.943zM5.2 4.123a2.328 2.328 0 011.882-1.175v3.57H3.844L5.2 4.122zm2.543 10.934a1.268 1.268 0 01-1.277-1.255c0-.693.573-1.256 1.277-1.256s1.277.563 1.277 1.256c0 .692-.572 1.255-1.277 1.255zm18.486 0a1.268 1.268 0 01-1.277-1.255c0-.693.573-1.256 1.277-1.256s1.277.563 1.277 1.256c0 .692-.573 1.255-1.277 1.255zm3.157-2.098a3.27 3.27 0 00-3.157-2.405 3.271 3.271 0 00-3.157 2.405H10.9a3.27 3.27 0 00-3.157-2.405 3.271 3.271 0 00-3.156 2.405H2.492v-3.91a.54.54 0 01.54-.539h21.651l6.262 1.045.028.004c.17.023.331.07.481.138a.996.996 0 00.274 1.953h.78v1.309h-3.122z"/></symbol><symbol viewBox="0 0 12 12" id="card-telegram" xmlns="http://www.w3.org/2000/svg"><g clip-path="url(#cclip0_53_46)"><path d="M10.418.083L.675 4.58c-1.125.525-.75 2.174.45 2.174h4.122v4.123c0 1.2 1.65 1.574 2.174.45l4.498-9.745c.375-.9-.6-1.874-1.5-1.5z"/></g><defs><clipPath id="cclip0_53_46"><path d="M0 0h12v12H0z"/></clipPath></defs></symbol><symbol viewBox="0 0 12 10" id="card_arow" xmlns="http://www.w3.org/2000/svg"><path d="M0 2.937v-.375C0 2.252.252 2 .563 2H9V.875c0-.5.607-.751.96-.398l1.875 1.875c.22.22.22.576 0 .796L9.96 5.023A.563.563 0 019 4.625V3.5H.562A.562.562 0 010 2.937zM11.438 6.5H3V5.375c0-.5-.606-.752-.96-.398L.165 6.852a.563.563 0 000 .796L2.04 9.523c.352.352.96.104.96-.398V8h8.438c.31 0 .562-.252.562-.563v-.375a.562.562 0 00-.563-.562z"/></symbol><symbol viewBox="0 0 12 12" id="card_bensin" xmlns="http://www.w3.org/2000/svg"><path d="M7.875 10.5h-7.5a.376.376 0 00-.375.375v.75c0 .206.169.375.375.375h7.5a.376.376 0 00.375-.375v-.75a.376.376 0 00-.375-.375zm3.684-7.985L9.661.616a.376.376 0 00-.53 0l-.265.265a.376.376 0 000 .53l.884.884V3.75c0 .659.49 1.202 1.125 1.294v3.769c0 .309-.253.562-.563.562a.564.564 0 01-.562-.563v-.75C9.75 6.923 8.827 6 7.687 6H7.5V1.5C7.5.673 6.827 0 6 0H2.25C1.423 0 .75.673.75 1.5v8.25H7.5V7.125h.188c.517 0 .937.42.937.938v.651c0 .884.633 1.688 1.512 1.779A1.692 1.692 0 0012 8.813V3.577c0-.399-.16-.78-.44-1.062zM6 4.5H2.25v-3H6v3z"/></symbol><symbol viewBox="0 0 12 12" id="card_data" xmlns="http://www.w3.org/2000/svg"><g clip-path="url(#fclip0_53_34)"><path d="M.75 10.875c0 .621.504 1.125 1.125 1.125h8.25c.621 0 1.125-.504 1.125-1.125V4.5H.75v6.375zm7.5-4.594c0-.154.127-.281.281-.281h.938c.154 0 .281.127.281.281v.938a.282.282 0 01-.281.281H8.53a.282.282 0 01-.281-.281V6.28zm0 3c0-.154.127-.281.281-.281h.938c.154 0 .281.127.281.281v.938a.282.282 0 01-.281.281H8.53a.282.282 0 01-.281-.281V9.28zm-3-3c0-.154.127-.281.281-.281h.938c.154 0 .281.127.281.281v.938a.282.282 0 01-.281.281H5.53a.282.282 0 01-.281-.281V6.28zm0 3c0-.154.127-.281.281-.281h.938c.154 0 .281.127.281.281v.938a.282.282 0 01-.281.281H5.53a.282.282 0 01-.281-.281V9.28zm-3-3c0-.154.127-.281.281-.281h.938c.154 0 .281.127.281.281v.938a.282.282 0 01-.281.281H2.53a.282.282 0 01-.281-.281V6.28zm0 3c0-.154.127-.281.281-.281h.938c.154 0 .281.127.281.281v.938a.282.282 0 01-.281.281H2.53a.282.282 0 01-.281-.281V9.28zM10.125 1.5H9V.375A.376.376 0 008.625 0h-.75A.376.376 0 007.5.375V1.5h-3V.375A.376.376 0 004.125 0h-.75A.376.376 0 003 .375V1.5H1.875C1.254 1.5.75 2.004.75 2.625V3.75h10.5V2.625c0-.621-.504-1.125-1.125-1.125z"/></g><defs><clipPath id="fclip0_53_34"><path d="M0 0h12v12H0z"/></clipPath></defs></symbol><symbol viewBox="0 0 19 19" id="close-svg" xmlns="http://www.w3.org/2000/svg"><path d="M18.61.467a1.042 1.042 0 00-1.473 0L9.539 8.066 1.94.467A1.042 1.042 0 10.467 1.94L8.066 9.54.466 17.137A1.042 1.042 0 001.94 18.61l7.599-7.598 7.598 7.598a1.042 1.042 0 101.473-1.473l-7.598-7.598L18.61 1.94a1.042 1.042 0 000-1.473z"/></symbol><symbol viewBox="0 0 12 12" id="data" xmlns="http://www.w3.org/2000/svg"><g clip-path="url(#hclip0_53_34)"><path d="M.75 10.875c0 .621.504 1.125 1.125 1.125h8.25c.621 0 1.125-.504 1.125-1.125V4.5H.75v6.375zm7.5-4.594c0-.154.127-.281.281-.281h.938c.154 0 .281.127.281.281v.938a.282.282 0 01-.281.281H8.53a.282.282 0 01-.281-.281V6.28zm0 3c0-.154.127-.281.281-.281h.938c.154 0 .281.127.281.281v.938a.282.282 0 01-.281.281H8.53a.282.282 0 01-.281-.281V9.28zm-3-3c0-.154.127-.281.281-.281h.938c.154 0 .281.127.281.281v.938a.282.282 0 01-.281.281H5.53a.282.282 0 01-.281-.281V6.28zm0 3c0-.154.127-.281.281-.281h.938c.154 0 .281.127.281.281v.938a.282.282 0 01-.281.281H5.53a.282.282 0 01-.281-.281V9.28zm-3-3c0-.154.127-.281.281-.281h.938c.154 0 .281.127.281.281v.938a.282.282 0 01-.281.281H2.53a.282.282 0 01-.281-.281V6.28zm0 3c0-.154.127-.281.281-.281h.938c.154 0 .281.127.281.281v.938a.282.282 0 01-.281.281H2.53a.282.282 0 01-.281-.281V9.28zM10.125 1.5H9V.375A.376.376 0 008.625 0h-.75A.376.376 0 007.5.375V1.5h-3V.375A.376.376 0 004.125 0h-.75A.376.376 0 003 .375V1.5H1.875C1.254 1.5.75 2.004.75 2.625V3.75h10.5V2.625c0-.621-.504-1.125-1.125-1.125z"/></g><defs><clipPath id="hclip0_53_34"><path d="M0 0h12v12H0z"/></clipPath></defs></symbol><symbol viewBox="0 0 17 17" id="facebook" xmlns="http://www.w3.org/2000/svg"><path d="M14.118 2.85a7.897 7.897 0 00-12.407 9.564l-.02-.038-1.12 4.091 4.186-1.098c1.09.605 2.39.961 3.773.961h.003a7.899 7.899 0 005.585-13.48zM8.534 14.995H8.53a6.524 6.524 0 01-3.37-.931l.03.016-.24-.141-2.483.651.663-2.422-.157-.248A6.498 6.498 0 011.97 8.434a6.563 6.563 0 116.563 6.562zm3.6-4.915c-.197-.098-1.167-.575-1.348-.641-.181-.066-.313-.098-.445.1-.13.196-.509.64-.624.772-.115.132-.23.148-.428.05a5.433 5.433 0 01-1.592-.984l.005.005a5.97 5.97 0 01-1.082-1.34l-.015-.027c-.114-.197-.012-.304.087-.402.088-.088.197-.23.295-.345.078-.096.144-.204.195-.321l.003-.01a.355.355 0 00-.017-.346v.001c-.05-.098-.444-1.07-.608-1.465-.16-.384-.323-.332-.444-.338a8.517 8.517 0 00-.378-.007.722.722 0 00-.525.246v.001a2.207 2.207 0 00-.69 1.648v-.002c.069.78.361 1.48.81 2.05l-.006-.009a8.868 8.868 0 003.321 2.956l.05.023c.291.132.664.273 1.046.393l.079.022a2.71 2.71 0 001.258.076l-.017.002a2.039 2.039 0 001.327-.93l.005-.008a1.613 1.613 0 00.113-.948l.002.01c-.049-.082-.18-.131-.378-.23v-.002z"/></symbol><symbol viewBox="0 0 31 22" id="gibrid" xmlns="http://www.w3.org/2000/svg"><path d="M28.883 9.371l-4.284-1.693-2.49-5.745A3.222 3.222 0 0019.146 0H9.291c-1.43 0-2.706.95-3.1 2.312l-1.48 5.126H2.298c-1.185 0-2.15.953-2.15 2.125v6.374c0 1.172.965 2.126 2.15 2.126h2.301a4.285 4.285 0 004.145 3.187 4.285 4.285 0 004.146-3.188h4.602a4.286 4.286 0 004.146 3.188 4.285 4.285 0 004.145-3.188h2.301c1.185 0 2.15-.953 2.15-2.125v-4.593c0-.874-.53-1.649-1.351-1.973zM8.744 19.125c-1.185 0-2.148-.953-2.148-2.125 0-1.172.963-2.125 2.148-2.125 1.186 0 2.15.953 2.15 2.125 0 1.172-.964 2.125-2.15 2.125zm12.894 0c-1.185 0-2.15-.953-2.15-2.125 0-1.172.965-2.125 2.15-2.125s2.149.953 2.149 2.125c0 1.172-.964 2.125-2.15 2.125zm6.446-3.188h-2.301a4.285 4.285 0 00-4.145-3.187 4.286 4.286 0 00-4.146 3.188H12.89a4.285 4.285 0 00-4.146-3.188A4.285 4.285 0 004.6 15.938H2.298V9.561H5.52c.48 0 .902-.314 1.033-.77l1.703-5.896a1.079 1.079 0 011.034-.771h9.855c.43 0 .818.253.988.644l2.664 6.15c.112.259.324.463.588.568l4.698 1.857v4.594z"/><path d="M13.52 12.572a1.056 1.056 0 01-.297-1.474l1.035-1.536h-1.215c-.397 0-.761-.215-.948-.56a1.05 1.05 0 01.054-1.09l2.149-3.188a1.08 1.08 0 011.49-.294c.493.325.626.984.297 1.473l-1.034 1.534h1.215c.396 0 .76.216.948.561a1.05 1.05 0 01-.054 1.09l-2.15 3.188c-.329.49-.997.62-1.49.296z"/></symbol><symbol viewBox="0 0 30 18" id="hatchback" xmlns="http://www.w3.org/2000/svg"><path d="M24.563 5.313h-1.244a1.06 1.06 0 01-.754-.308l-2.826-2.827A7.436 7.436 0 0014.426 0H5.437A5.313 5.313 0 00.125 5.313v5.312a3.188 3.188 0 003.188 3.188 3.719 3.719 0 107.437 0h7.544a3.697 3.697 0 007.331 0h1.063a3.188 3.188 0 003.187-3.188 5.313 5.313 0 00-5.313-5.312zM14.479 2.125a5.315 5.315 0 013.762 1.551l1.636 1.637H6.755a1.063 1.063 0 01-.956-.585L4.566 2.263c.282-.09.576-.136.872-.138h9.041zm-12.229 8.5V5.313c0-.646.197-1.275.563-1.807l1.063 2.125a3.187 3.187 0 002.879 1.807h6.12v4.25h-2.497a3.697 3.697 0 00-6.694 0h-.372a1.063 1.063 0 01-1.062-1.063zm4.781 4.25a1.594 1.594 0 110-3.188 1.594 1.594 0 010 3.188zm14.875 0a1.594 1.594 0 110-3.187 1.594 1.594 0 010 3.187zm4.782-3.187h-1.435a3.697 3.697 0 00-6.694 0H15v-4.25h9.563A3.188 3.188 0 0126.92 8.5h-.233a1.063 1.063 0 000 2.125h1.062a1.063 1.063 0 01-1.063 1.063z"/></symbol><symbol viewBox="0 0 30 18" id="hatchback1" xmlns="http://www.w3.org/2000/svg"><path d="M24.563 5.313h-1.244a1.06 1.06 0 01-.754-.308l-2.826-2.827A7.436 7.436 0 0014.426 0H5.437A5.313 5.313 0 00.125 5.313v5.312a3.188 3.188 0 003.188 3.188 3.719 3.719 0 107.437 0h7.544a3.697 3.697 0 007.331 0h1.063a3.188 3.188 0 003.187-3.188 5.313 5.313 0 00-5.313-5.312zM14.479 2.125a5.315 5.315 0 013.762 1.551l1.636 1.637H6.755a1.063 1.063 0 01-.956-.585L4.566 2.263c.282-.09.576-.136.872-.138h9.041zm-12.229 8.5V5.313c0-.646.197-1.275.563-1.807l1.063 2.125a3.187 3.187 0 002.879 1.807h6.12v4.25h-2.497a3.697 3.697 0 00-6.694 0h-.372a1.063 1.063 0 01-1.062-1.063zm4.781 4.25a1.594 1.594 0 110-3.188 1.594 1.594 0 010 3.188zm14.875 0a1.594 1.594 0 110-3.187 1.594 1.594 0 010 3.187zm4.782-3.187h-1.435a3.697 3.697 0 00-6.694 0H15v-4.25h9.563A3.188 3.188 0 0126.92 8.5h-.233a1.063 1.063 0 000 2.125h1.062a1.063 1.063 0 01-1.063 1.063z"/></symbol><symbol viewBox="0 0 13 13" id="in" xmlns="http://www.w3.org/2000/svg"><g clip-path="url(#mclip0_52_7)"><path clip-rule="evenodd" d="M3.238 4.068V13H0V4.068h3.238zm4.88-.017v.526c.473-.305 1.019-.482 1.845-.482 2.692 0 3.037 2.09 3.037 3.91V13H9.746V8.255c0-.799-.286-.95-.814-.95-.502 0-.813.16-.813.95V13H4.865V4.05h3.254zM1.619 0a1.62 1.62 0 011.62 1.619 1.62 1.62 0 01-1.62 1.619A1.621 1.621 0 010 1.618C0 .727.726 0 1.619 0z"/></g><defs><clipPath id="mclip0_52_7"><path d="M0 0h13v13H0z"/></clipPath></defs></symbol><symbol viewBox="0 0 35 18" id="kupe" xmlns="http://www.w3.org/2000/svg"><path d="M29.654 4.96h-2.71a10.52 10.52 0 00-3.516-3.236A10.52 10.52 0 0018.265.367H17.5c-.555 0-1.005.45-1.005 1.005v3.587H5.346A4.853 4.853 0 00.5 9.805v3.842c0 .555.45 1.005 1.005 1.005H5.02a4.017 4.017 0 003.882 3.005 4.017 4.017 0 003.883-3.005h9.43a4.017 4.017 0 003.883 3.005 4.017 4.017 0 003.882-3.005h3.515c.555 0 1.005-.45 1.005-1.005V9.805a4.852 4.852 0 00-4.846-4.846zm-11.15-2.58a8.546 8.546 0 015.855 2.58h-5.854V2.38zM2.51 10.304h1.552a1.005 1.005 0 000-2.01H2.947a2.836 2.836 0 012.4-1.325h11.148v5.673h-3.71a4.017 4.017 0 00-3.883-3.005 4.017 4.017 0 00-3.882 3.005H2.51v-2.338zm8.394 3.343c0 1.103-.898 2-2 2-1.104 0-2.001-.897-2.001-2s.897-2 2-2 2 .897 2 2zm17.195 0c0 1.103-.897 2-2 2s-2-.897-2-2 .897-2 2-2 2 .897 2 2zm1.882-1.005a4.017 4.017 0 00-3.882-3.005 4.017 4.017 0 00-3.883 3.005h-3.71V6.97h11.149c.991 0 1.865.511 2.372 1.284h-1.555a1.005 1.005 0 000 2.01h2.02v2.38h-2.51z"/></symbol><symbol viewBox="0 0 19 24" id="next" xmlns="http://www.w3.org/2000/svg"><path d="M2.27 11.819l16.624 8.594v3.464L.256 13.699v-2.176l2.014.296zm16.624-7.493L2.297 13.001l-2.041.188v-2.176L18.894.862v3.464z"/></symbol><symbol viewBox="0 0 16 15" id="paginate-left" xmlns="http://www.w3.org/2000/svg"><g clip-path="url(#pclip0_99_67)"><path d="M12.181 13.403l.176-.185-.189-.172L6.073 7.5l6.095-5.546.189-.172-.175-.185-.789-.831-.168-.178-.181.165-7.212 6.562-.203.185.203.185 7.212 6.562.18.165.17-.178.787-.831z"/></g><defs><clipPath id="pclip0_99_67"><path transform="rotate(90 8 8)" d="M0 0h15v16H0z"/></clipPath></defs></symbol><symbol viewBox="0 0 16 15" id="paginate-right" xmlns="http://www.w3.org/2000/svg"><g clip-path="url(#qclip0_99_60)"><path d="M3.819 1.597l-.176.185.189.172L9.927 7.5l-6.095 5.546-.189.172.176.185.788.832.168.177.181-.165 7.212-6.562.204-.185-.204-.185L4.956.753 4.775.588l-.168.178-.788.831z"/></g><defs><clipPath id="qclip0_99_60"><path transform="rotate(-90 7.5 7.5)" d="M0 0h15v16H0z"/></clipPath></defs></symbol><symbol viewBox="0 0 20 24" id="prev" xmlns="http://www.w3.org/2000/svg"><path d="M17.249 12.786L.411 4.219V.809l19.067 10.15v2.176l-2.229-.35zm-16.838 7.6l16.865-8.648 2.202-.295v2.202L.411 23.823v-3.437z"/></symbol><symbol viewBox="0 0 21 21" id="search" xmlns="http://www.w3.org/2000/svg"><g clip-path="url(#sclip0_35_624)"><path clip-rule="evenodd" d="M21 19.086L19.515 20.5l-4.455-4.242 1.485-1.415L21 19.086zM8.4 14.5c-3.473 0-6.3-2.691-6.3-6 0-3.308 2.827-6 6.3-6s6.3 2.692 6.3 6c0 3.309-2.827 6-6.3 6zm0-14C3.761.5 0 4.082 0 8.5s3.761 8 8.4 8 8.4-3.582 8.4-8-3.761-8-8.4-8z"/></g><defs><clipPath id="sclip0_35_624"><path d="M0 0h21v21H0z"/></clipPath></defs></symbol><symbol viewBox="0 0 34 24" id="search_auto1" xmlns="http://www.w3.org/2000/svg"><path d="M32.891 16.435h-1.108V10.89a3.33 3.33 0 00-3.327-3.326h-3.635l-1.46-4.378A3.322 3.322 0 0020.207.913H7.761A3.331 3.331 0 004.625 3.13H3.326A3.33 3.33 0 000 6.457v4.434a3.33 3.33 0 003.326 3.326h1.109v2.218H3.326a1.109 1.109 0 000 2.217h3.326a4.44 4.44 0 004.435 4.435 4.44 4.44 0 004.435-4.435h5.174a4.44 4.44 0 004.434 4.435 4.44 4.44 0 004.435-4.435h3.326a1.109 1.109 0 100-2.217zM4.435 12H3.326a1.11 1.11 0 01-1.109-1.109V6.457a1.11 1.11 0 011.11-1.11h1.108V12zm11.087-8.87h4.684c.478 0 .9.305 1.052.758l1.225 3.677h-6.961V3.13zm-8.87 1.11a1.11 1.11 0 011.109-1.11h5.543v4.435H6.652V4.24zm4.435 16.63a2.22 2.22 0 01-2.217-2.218 2.22 2.22 0 012.217-2.217 2.22 2.22 0 012.217 2.217 2.22 2.22 0 01-2.217 2.218zm14.043 0a2.22 2.22 0 01-2.217-2.218 2.22 2.22 0 012.217-2.217 2.22 2.22 0 012.218 2.217 2.22 2.22 0 01-2.218 2.218zm4.435-4.435h-.596a4.437 4.437 0 00-3.839-2.218c-1.637 0-3.07.894-3.838 2.218h-6.367a4.436 4.436 0 00-3.838-2.218c-1.638 0-3.07.894-3.838 2.218h-.597V9.783h21.805a1.11 1.11 0 011.108 1.108v5.544z"/><path d="M18.848 12h-2.217a1.109 1.109 0 000 2.217h2.217a1.109 1.109 0 000-2.217z"/></symbol><symbol viewBox="0 0 25 23" id="star_blue" xmlns="http://www.w3.org/2000/svg"><path d="M11.254 1.162L8.42 6.908l-6.341.925c-1.137.164-1.593 1.566-.768 2.37l4.587 4.47-1.085 6.315c-.195 1.141 1.007 1.997 2.014 1.463l5.673-2.982 5.673 2.982c1.007.53 2.209-.322 2.014-1.463l-1.085-6.315 4.587-4.47c.825-.804.37-2.206-.768-2.37l-6.341-.925-2.834-5.746c-.508-1.025-1.98-1.038-2.492 0z"/></symbol><symbol viewBox="0 0 50 50" id="step1" xmlns="http://www.w3.org/2000/svg"><path d="M44.943 37.73l-.177-.052c-2.585-.694-3.46-1.36-4.61-1.797-4.083-1.556-5.145-2.676-5.417-3.206l-.026-.06-.033-4.74-9.68-.11-9.68.11-.034 4.74-.027.06c-.272.53-1.334 1.65-5.416 3.206-1.15.436-2.024 1.103-4.61 1.797l-.176.052a5.715 5.715 0 00-3.937 5.423v6.846h47.76v-6.846a5.716 5.716 0 00-3.937-5.423z"/><path d="M29.806 50h-9.47l1.335-9.375h6.628L29.806 50z"/><path d="M28.314 40.625h-6.628l-1.894-10.417h10.415l-1.893 10.417z"/><path d="M19.74 38.551l4.915-3.917-9.353-6.163-.043 4.204 4.481 5.876zM30.249 38.551l-4.915-3.917 9.354-6.163.042 4.204-4.481 5.876z"/><path d="M38.432 18.7c0 8.728-8.32 16.76-13.433 16.76-5.111 0-13.432-8.032-13.432-16.76 0-8.728 6.014-14.487 13.433-14.487 7.418 0 13.432 5.759 13.432 14.487z"/><path d="M33.31 2.774c-2.284-2.069-10.22-5.041-17.58 0-5.805 3.975-5.22 14.002-5.22 14.002s7.618 1.924 16.341-3.06c5.64-3.222 7.605.055 8.617 2.907.982 2.779 2.964 2.077 2.964 2.077S40.62 9.392 33.31 2.774z"/><path d="M30.946 12.384c.792 0 1.454.205 2.011.545 1.087-4.324 3.531-5.037 4.11-5.145a15.855 15.855 0 00-1.053-1.865c-1.416.482-3.925 1.962-5.068 6.465z"/><path d="M41.744 43.75H31.33V50h10.415v-6.25z"/><path d="M37.58 42.708h-2.085a1.041 1.041 0 000 2.082h2.084a1.041 1.041 0 000-2.082z"/></symbol><symbol viewBox="0 0 18 18" id="t" xmlns="http://www.w3.org/2000/svg"><path d="M2.916 9.048c-1.24-.441-1.86-.662-2.044-.996-.16-.29-.168-.64-.02-.937.17-.342.78-.589 2-1.083L14.349 1.38C15.55.893 16.151.649 16.53.774c.33.108.588.367.696.696.125.38-.118.98-.604 2.181L11.968 15.15c-.494 1.22-.74 1.83-1.083 2-.296.147-.646.14-.936-.02-.335-.185-.555-.805-.997-2.045l-1.35-3.795c-.086-.242-.129-.362-.199-.463a.914.914 0 00-.229-.229c-.1-.07-.221-.113-.462-.198L2.916 9.048z"/></symbol><symbol viewBox="0 0 18 16" id="telegram" xmlns="http://www.w3.org/2000/svg"><path d="M16.6 1.033L1.658 6.808C.65 7.175.65 7.817 1.475 8l3.758 1.192 1.467 4.4c.183.458.092.641.55.641.367 0 .55-.183.733-.366l1.834-1.834 3.85 2.842c.733.367 1.191.183 1.375-.642l2.566-12.008c.275-1.008-.366-1.558-1.008-1.192zm-1.925 2.75l-7.15 6.509-.275 3.025-1.467-4.4L14.217 3.6c.366-.275.733-.092.458.183z"/></symbol><symbol viewBox="0 0 17 13" id="youtube" xmlns="http://www.w3.org/2000/svg"><path clip-rule="evenodd" d="M6.79 8.698v-4.77c1.694.797 3.005 1.567 4.556 2.397-1.28.71-2.862 1.505-4.556 2.373zm9.437-7.142c-.292-.385-.79-.685-1.32-.784C13.35.476 3.63.476 2.073.772c-.425.08-.803.272-1.128.572-1.37 1.271-.941 8.09-.61 9.195.138.478.318.822.544 1.049.29.299.69.505 1.148.597 1.282.266 7.89.414 12.853.04.457-.08.862-.292 1.181-.604 1.267-1.267 1.18-8.468.166-10.065z"/></symbol></svg>